<svg width="30" height="30" viewBox="0 0 30 30" fill="none" xmlns="http://www.w3.org/2000/svg">
<g clip-path="url(#clip0)">
<path d="M7.06604 7.15767L1.57528 12.6472C0.904099 13.3217 0.527313 14.2346 0.527313 15.1861C0.527313 16.1377 0.904099 17.0505 1.57528 17.725L7.06484 23.2146C7.17526 23.3289 7.30735 23.4201 7.45339 23.4828C7.59943 23.5456 7.7565 23.5786 7.91544 23.58C8.07438 23.5814 8.23201 23.5511 8.37912 23.4909C8.52623 23.4307 8.65988 23.3418 8.77227 23.2294C8.88466 23.117 8.97355 22.9834 9.03373 22.8363C9.09392 22.6892 9.12421 22.5315 9.12283 22.3726C9.12144 22.2137 9.08842 22.0566 9.02569 21.9105C8.96295 21.7645 8.87176 21.6324 8.75743 21.522L3.62099 16.3832H28.0595C28.3769 16.3832 28.6814 16.257 28.9059 16.0326C29.1304 15.8081 29.2565 15.5036 29.2565 15.1861C29.2565 14.8687 29.1304 14.5642 28.9059 14.3397C28.6814 14.1152 28.3769 13.9891 28.0595 13.9891H3.6198L8.75863 8.85027C8.87296 8.73985 8.96415 8.60776 9.02689 8.46172C9.08962 8.31568 9.12264 8.1586 9.12402 7.99966C9.1254 7.84072 9.09512 7.6831 9.03493 7.53599C8.97474 7.38888 8.88586 7.25523 8.77347 7.14284C8.66108 7.03044 8.52743 6.94156 8.38032 6.88137C8.23321 6.82119 8.07558 6.7909 7.91664 6.79228C7.7577 6.79366 7.60063 6.82668 7.45458 6.88942C7.30854 6.95215 7.17646 7.04335 7.06604 7.15767Z" fill="white"/>
</g>
<defs>
<clipPath id="clip0">
<rect width="28.7286" height="28.7286" fill="white" transform="translate(0.527893 0.821533)"/>
</clipPath>
</defs>
</svg>
