<svg width="181" height="45" viewBox="0 0 181 45" fill="none" xmlns="http://www.w3.org/2000/svg">
<rect y="5.53247" width="33.4675" height="33.4675" rx="11.1331" fill="white"/>
<g clip-path="url(#clip0)">
<path d="M16.7339 11.5089L7.27539 14.2077V18.9495C7.27539 25.0407 10.8948 30.5267 16.4816 32.9228L16.7339 33.0237L16.9861 32.9228C22.5729 30.5267 26.1923 25.0407 26.1923 18.9495V14.2077L16.7339 11.5089Z" fill="#438BEB"/>
<path d="M26.1923 14.2077V18.9495C26.1923 25.0407 22.5728 30.5267 16.986 32.9228L16.7338 33.0237V11.5089L26.1923 14.2077Z" fill="#438BEB"/>
<path d="M16.7338 13.682L9.39923 15.7762V18.7773C9.39923 23.7124 12.0931 28.2208 16.4138 30.5683L16.7338 30.7418L17.0539 30.5683C21.3746 28.2208 24.0684 23.7124 24.0684 18.7773V15.7762L16.7338 13.682Z" fill="white"/>
<path d="M24.0684 15.7762V18.7773C24.0684 23.7124 21.3746 28.2208 17.0538 30.5684L16.7338 30.7418V13.682L24.0684 15.7762Z" fill="white"/>
<path d="M19.8307 18.1983V17.0505H13.5827V18.1983H15.5707C16.3102 18.1983 16.9344 18.6792 17.1696 19.346H13.5827V20.4937H17.1696C17.053 20.8284 16.8367 21.1184 16.5504 21.324C16.2641 21.5295 15.9219 21.6404 15.5707 21.6415H13.5827V23.0268L16.7555 26.2324H18.3618L14.9538 22.7892H15.5707C16.225 22.7883 16.859 22.5595 17.3658 22.1414C17.8726 21.7232 18.2211 21.1413 18.3527 20.4937H19.8307V19.346H18.3527C18.2657 18.9283 18.0863 18.536 17.8279 18.1983H19.8307Z" fill="#438BEB"/>
</g>
<path d="M55.7535 20.3885C55.4109 17.9148 53.5081 16.4795 51.0398 16.4795C48.1311 16.4795 45.9401 18.5998 45.9401 22.199C45.9401 25.7927 48.1039 27.9185 51.0398 27.9185C53.6875 27.9185 55.4436 26.2059 55.7535 24.0801L53.7201 24.0692C53.4646 25.374 52.399 26.108 51.067 26.108C49.2619 26.108 47.968 24.7543 47.968 22.199C47.968 19.6872 49.2511 18.2899 51.0724 18.2899C52.4262 18.2899 53.4863 19.0565 53.7201 20.3885H55.7535ZM62.6602 24.2541C62.6602 25.5263 61.7523 26.1569 60.8824 26.1569C59.9364 26.1569 59.3057 25.4882 59.3057 24.428V19.4153H57.3376V24.7325C57.3376 26.7387 58.4794 27.875 60.1213 27.875C61.3717 27.875 62.2525 27.2171 62.6331 26.282H62.72V27.7662H64.6284V19.4153H62.6602V24.2541ZM66.4762 27.7662H68.4443V22.8568C68.4443 21.7966 69.2435 21.0464 70.3255 21.0464C70.6571 21.0464 71.0703 21.1062 71.2388 21.1605V19.3501C71.0594 19.3175 70.7495 19.2957 70.5321 19.2957C69.5752 19.2957 68.776 19.8394 68.4715 20.8071H68.3845V19.4153H66.4762V27.7662ZM72.3704 27.7662H74.3385V22.8568C74.3385 21.7966 75.1377 21.0464 76.2196 21.0464C76.5513 21.0464 76.9645 21.1062 77.133 21.1605V19.3501C76.9536 19.3175 76.6437 19.2957 76.4262 19.2957C75.4694 19.2957 74.6701 19.8394 74.3657 20.8071H74.2787V19.4153H72.3704V27.7662ZM81.6177 27.9293C83.5641 27.9293 84.9015 26.9779 85.2495 25.5263L83.4118 25.3197C83.1454 26.0265 82.493 26.3962 81.6449 26.3962C80.3727 26.3962 79.53 25.5589 79.5137 24.129H85.331V23.5255C85.331 20.5951 83.5695 19.3066 81.5144 19.3066C79.1222 19.3066 77.5619 21.0627 77.5619 23.6397C77.5619 26.2602 79.1005 27.9293 81.6177 27.9293ZM79.5191 22.8024C79.5789 21.7368 80.3672 20.8398 81.5416 20.8398C82.6724 20.8398 83.4336 21.6662 83.4445 22.8024H79.5191ZM88.7882 22.8731C88.7882 21.6662 89.5167 20.9702 90.5551 20.9702C91.5718 20.9702 92.1807 21.639 92.1807 22.7535V27.7662H94.1488V22.4491C94.1543 20.4483 93.0125 19.3066 91.2891 19.3066C90.0386 19.3066 89.1796 19.9046 88.799 20.8343H88.7012V19.4153H86.82V27.7662H88.7882V22.8731ZM99.6162 27.9293C101.715 27.9293 103.052 26.6843 103.194 24.9119H101.313C101.144 25.809 100.497 26.3255 99.6325 26.3255C98.4038 26.3255 97.6101 25.2979 97.6101 23.5908C97.6101 21.9054 98.4201 20.8941 99.6325 20.8941C100.579 20.8941 101.16 21.5031 101.313 22.3077H103.194C103.058 20.4972 101.644 19.3066 99.6054 19.3066C97.1588 19.3066 95.6147 21.0735 95.6147 23.6234C95.6147 26.1515 97.1207 27.9293 99.6162 27.9293ZM105.857 30.8815C107.39 30.8815 108.276 30.0877 108.749 28.7775L112.104 19.4262L110 19.4153L108.07 25.722H107.983L106.058 19.4153H103.97L106.999 27.9402L106.83 28.3915C106.455 29.3157 105.89 29.3864 105.031 29.1417L104.574 30.6695C104.84 30.7837 105.319 30.8815 105.857 30.8815ZM120.776 27.7662C124.168 27.7662 126.18 25.6676 126.18 22.1881C126.18 18.7194 124.168 16.6317 120.852 16.6317H117.002V27.7662H120.776ZM119.019 26.021V18.3769H120.738C122.999 18.3769 124.179 19.6382 124.179 22.1881C124.179 24.7488 122.999 26.021 120.678 26.021H119.019ZM131.53 27.9293C133.477 27.9293 134.814 26.9779 135.162 25.5263L133.324 25.3197C133.058 26.0265 132.406 26.3962 131.557 26.3962C130.285 26.3962 129.443 25.5589 129.426 24.129H135.244V23.5255C135.244 20.5951 133.482 19.3066 131.427 19.3066C129.035 19.3066 127.474 21.0627 127.474 23.6397C127.474 26.2602 129.013 27.9293 131.53 27.9293ZM129.432 22.8024C129.491 21.7368 130.28 20.8398 131.454 20.8398C132.585 20.8398 133.346 21.6662 133.357 22.8024H129.432ZM140.903 19.4153H139.255V17.4146H137.287V19.4153H136.102V20.9376H137.287V25.5806C137.276 27.1519 138.418 27.9239 139.897 27.8804C140.457 27.8641 140.843 27.7554 141.055 27.6847L140.723 26.1461C140.614 26.1733 140.392 26.2222 140.147 26.2222C139.652 26.2222 139.255 26.0482 139.255 25.2544V20.9376H140.903V19.4153ZM145.98 27.9293C147.926 27.9293 149.264 26.9779 149.612 25.5263L147.774 25.3197C147.508 26.0265 146.855 26.3962 146.007 26.3962C144.735 26.3962 143.892 25.5589 143.876 24.129H149.693V23.5255C149.693 20.5951 147.932 19.3066 145.877 19.3066C143.484 19.3066 141.924 21.0627 141.924 23.6397C141.924 26.2602 143.463 27.9293 145.98 27.9293ZM143.881 22.8024C143.941 21.7368 144.729 20.8398 145.904 20.8398C147.035 20.8398 147.796 21.6662 147.807 22.8024H143.881ZM154.825 27.9293C156.923 27.9293 158.261 26.6843 158.402 24.9119H156.521C156.353 25.809 155.706 26.3255 154.841 26.3255C153.612 26.3255 152.819 25.2979 152.819 23.5908C152.819 21.9054 153.629 20.8941 154.841 20.8941C155.787 20.8941 156.369 21.5031 156.521 22.3077H158.402C158.266 20.4972 156.853 19.3066 154.814 19.3066C152.367 19.3066 150.823 21.0735 150.823 23.6234C150.823 26.1515 152.329 27.9293 154.825 27.9293ZM164.012 19.4153H162.365V17.4146H160.397V19.4153H159.212V20.9376H160.397V25.5806C160.386 27.1519 161.528 27.9239 163.007 27.8804C163.567 27.8641 163.953 27.7554 164.165 27.6847L163.833 26.1461C163.724 26.1733 163.501 26.2222 163.257 26.2222C162.762 26.2222 162.365 26.0482 162.365 25.2544V20.9376H164.012V19.4153ZM169.035 27.9293C171.482 27.9293 173.037 26.2059 173.037 23.6234C173.037 21.0355 171.482 19.3066 169.035 19.3066C166.589 19.3066 165.034 21.0355 165.034 23.6234C165.034 26.2059 166.589 27.9293 169.035 27.9293ZM169.046 26.3527C167.692 26.3527 167.029 25.1457 167.029 23.618C167.029 22.0902 167.692 20.8669 169.046 20.8669C170.378 20.8669 171.042 22.0902 171.042 23.618C171.042 25.1457 170.378 26.3527 169.046 26.3527ZM174.531 27.7662H176.499V22.8568C176.499 21.7966 177.299 21.0464 178.381 21.0464C178.712 21.0464 179.125 21.1062 179.294 21.1605V19.3501C179.114 19.3175 178.805 19.2957 178.587 19.2957C177.63 19.2957 176.831 19.8394 176.527 20.8071H176.44V19.4153H174.531V27.7662Z" fill="white"/>
<defs>
<clipPath id="clip0">
<rect width="21.5149" height="21.5149" fill="white" transform="translate(5.97641 11.5089)"/>
</clipPath>
</defs>
</svg>
