<svg width="21" height="20" viewBox="0 0 21 20" fill="none" xmlns="http://www.w3.org/2000/svg">
<g clip-path="url(#clip0)">
<path d="M18.4077 14.1313V17.3233C18.4077 17.535 18.3236 17.738 18.1739 17.8876C18.0243 18.0373 17.8213 18.1214 17.6096 18.1214H3.24532C3.03368 18.1214 2.8307 18.0373 2.68104 17.8876C2.53138 17.738 2.44731 17.535 2.44731 17.3233V14.1313C2.44731 13.9196 2.36323 13.7166 2.21357 13.567C2.06392 13.4173 1.86094 13.3333 1.64929 13.3333C1.43764 13.3333 1.23466 13.4173 1.08501 13.567C0.935349 13.7166 0.851273 13.9196 0.851273 14.1313L0.851273 17.3233C0.851273 17.9583 1.1035 18.5672 1.55247 19.0162C2.00145 19.4652 2.61038 19.7174 3.24532 19.7174H17.6096C18.2446 19.7174 18.8535 19.4652 19.3025 19.0162C19.7515 18.5672 20.0037 17.9583 20.0037 17.3233V14.1313C20.0037 13.9196 19.9196 13.7166 19.77 13.567C19.6203 13.4173 19.4173 13.3333 19.2057 13.3333C18.994 13.3333 18.791 13.4173 18.6414 13.567C18.4917 13.7166 18.4077 13.9196 18.4077 14.1313Z" fill="#438BEB"/>
<path d="M15.7798 4.92385L12.1201 1.26334C11.6704 0.815888 11.0619 0.564697 10.4275 0.564697C9.79312 0.564697 9.18456 0.815888 8.73489 1.26334L5.07518 4.92385C4.99896 4.99746 4.93817 5.08552 4.89635 5.18288C4.85452 5.28024 4.83251 5.38496 4.83159 5.49092C4.83067 5.59688 4.85086 5.70196 4.89098 5.80003C4.93111 5.89811 4.99036 5.98721 5.06529 6.06213C5.14022 6.13706 5.22932 6.19632 5.32739 6.23644C5.42547 6.27657 5.53055 6.29676 5.63651 6.29584C5.74247 6.29492 5.84719 6.2729 5.94455 6.23108C6.04191 6.18926 6.12997 6.12846 6.20358 6.05224L9.62947 2.62715V14.9294C9.62947 15.141 9.71354 15.344 9.8632 15.4937C10.0129 15.6433 10.2158 15.7274 10.4275 15.7274C10.6391 15.7274 10.8421 15.6433 10.9918 15.4937C11.1414 15.344 11.2255 15.141 11.2255 14.9294V2.62635L14.6514 6.05224C14.725 6.12846 14.8131 6.18926 14.9104 6.23108C15.0078 6.2729 15.1125 6.29492 15.2185 6.29584C15.3244 6.29676 15.4295 6.27657 15.5276 6.23644C15.6256 6.19632 15.7148 6.13706 15.7897 6.06213C15.8646 5.98721 15.9239 5.89811 15.964 5.80003C16.0041 5.70196 16.0243 5.59688 16.0234 5.49092C16.0225 5.38496 16.0004 5.28024 15.9586 5.18288C15.9168 5.08552 15.856 4.99746 15.7798 4.92385Z" fill="#438BEB"/>
</g>
<defs>
<clipPath id="clip0">
<rect width="19.1524" height="19.1524" fill="white" transform="translate(0.851273 0.565063)"/>
</clipPath>
</defs>
</svg>
